HIERARCHY
ROOT Hips
{
	OFFSET -0.001795 -0.223333 0.028219
	CHANNELS 6 Xposition Yposition Zposition Zrotation Yrotation Xrotation 
	JOINT LeftUpLeg
	{
		OFFSET 0.069520 -0.091406 -0.006815
		CHANNELS 3 Zrotation Yrotation Xrotation
		JOINT LeftLeg
		{
			OFFSET 0.034277 -0.375199 -0.004496
			CHANNELS 3 Zrotation Yrotation Xrotation
			JOINT LeftFoot
			{
				OFFSET -0.013596 -0.397961 -0.043693
				CHANNELS 3 Zrotation Yrotation Xrotation
				JOINT LeftToe
				{
					OFFSET 0.026358 -0.055791 0.119288
					CHANNELS 3 Zrotation Yrotation Xrotation
					End Site
					{
						OFFSET 0.000000 0.000000 0.000000
					}
				}
			}
		}
	}
	JOINT RightUpLeg
	{
		OFFSET -0.067670 -0.090522 -0.004320
		CHANNELS 3 Zrotation Yrotation Xrotation
		JOINT RightLeg
		{
			OFFSET -0.038290 -0.382569 -0.008850
			CHANNELS 3 Zrotation Yrotation Xrotation
			JOINT RightFoot
			{
				OFFSET 0.015774 -0.398415 -0.042312
				CHANNELS 3 Zrotation Yrotation Xrotation
				JOINT RightToe
				{
					OFFSET -0.025372 -0.048144 0.123348
					CHANNELS 3 Zrotation Yrotation Xrotation
					End Site
					{
						OFFSET 0.000000 0.000000 0.000000
					}
				}
			}
		}
	}
	JOINT Spine
	{
		OFFSET -0.002533 0.108963 -0.026696
		CHANNELS 3 Zrotation Yrotation Xrotation
		JOINT Spine1
		{
			OFFSET 0.005487 0.135180 0.001092
			CHANNELS 3 Zrotation Yrotation Xrotation
			JOINT Spine2
			{
				OFFSET 0.001457 0.052922 0.025425
				CHANNELS 3 Zrotation Yrotation Xrotation
				JOINT Neck
				{
					OFFSET -0.002778 0.213870 -0.042857
					CHANNELS 3 Zrotation Yrotation Xrotation
					JOINT Head
					{
						OFFSET 0.005152 0.064970 0.051349
						CHANNELS 3 Zrotation Yrotation Xrotation
						End Site
						{
							OFFSET 0.000000 0.000000 0.000000
						}
					}
				}
				JOINT LeftShoulder
				{
					OFFSET 0.078845 0.121749 -0.034090
					CHANNELS 3 Zrotation Yrotation Xrotation
					JOINT LeftArm
					{
						OFFSET 0.090977 0.030469 -0.008868
						CHANNELS 3 Zrotation Yrotation Xrotation
						JOINT LeftForeArm
						{
							OFFSET 0.259612 -0.012772 -0.027456
							CHANNELS 3 Zrotation Yrotation Xrotation
							JOINT LeftHand
							{
								OFFSET 0.249234 0.008986 -0.001171
								CHANNELS 3 Zrotation Yrotation Xrotation
								End Site
								{
									OFFSET 0.000000 0.000000 0.000000
								}
							}
						}
					}
				}
				JOINT RightShoulder
				{
					OFFSET -0.081759 0.118833 -0.038615
					CHANNELS 3 Zrotation Yrotation Xrotation
					JOINT RightArm
					{
						OFFSET -0.096012 0.032551 -0.009143
						CHANNELS 3 Zrotation Yrotation Xrotation
						JOINT RightForeArm
						{
							OFFSET -0.253742 -0.013329 -0.021401
							CHANNELS 3 Zrotation Yrotation Xrotation
							JOINT RightHand
							{
								OFFSET -0.255298 0.007772 -0.005559
								CHANNELS 3 Zrotation Yrotation Xrotation
								End Site
								{
									OFFSET 0.000000 0.000000 0.000000
								}
							}
						}
					}
				}
			}
		}
	}
}
MOTION
Frames: 5
Frame Time: 0.050000
-0.001617 0.977103 -0.003025 0.167007 9.711510 2.013782 7.765751 -0.263128 7.199404 -4.197222 0.282081 -8.772722 5.146103 14.361863 16.308179 0.000000 0.000000 0.000000 -5.393446 0.150369 -2.181901 2.122127 -0.267370 0.145766 5.378083 4.090947 18.477164 0.000000 0.000000 0.000000 2.289586 -0.697371 9.673050 12.467099 -3.097379 -18.340289 0.055473 -14.383619 27.126586 -14.757085 8.882301 -25.411409 0.000000 0.000000 0.000000 -23.859723 -28.487754 18.303545 -80.438734 -54.496639 34.375947 38.624549 -85.010350 -24.531242 0.000000 0.000000 0.000000 16.369896 26.981375 10.890999 55.663546 30.803383 6.995432 -35.103864 20.815359 -5.182870 0.000000 0.000000 0.000000 
-0.001439 0.977071 -0.003428 0.147599 9.532560 1.924554 7.828227 -0.262674 7.262535 -4.158243 0.286200 -8.716377 5.204146 14.451382 16.445496 0.000000 0.000000 0.000000 -5.340791 0.148938 -2.117927 2.129765 -0.266768 0.192169 5.432694 4.122698 18.545102 0.000000 0.000000 0.000000 2.312290 -0.691506 9.595730 12.553745 -3.156360 -18.144453 0.125623 -14.167466 27.034309 -14.681654 8.853322 -25.392841 0.000000 0.000000 0.000000 -23.961230 -28.272993 18.182204 -79.997017 -53.770310 33.354349 35.033674 -85.853318 -21.514021 0.000000 0.000000 0.000000 16.439626 26.783679 10.818483 55.952108 30.767152 7.042394 -35.019877 21.240435 -5.281393 0.000000 0.000000 0.000000 
-0.001245 0.977052 -0.003996 0.176329 9.404220 1.848875 7.824166 -0.256545 7.265059 -4.059411 0.290142 -8.559768 5.214830 14.463285 16.481555 0.000000 0.000000 0.000000 -5.381250 0.147775 -2.102151 2.119465 -0.263792 0.255039 5.410877 4.108775 18.424147 0.000000 0.000000 0.000000 2.314685 -0.687439 9.563836 12.640792 -3.184814 -18.164616 0.114810 -14.038080 27.115352 -14.491319 8.740035 -25.453803 0.000000 0.000000 0.000000 -23.989014 -28.022070 18.027293 -79.543983 -52.900569 32.203599 27.243984 -87.272879 -14.544880 0.000000 0.000000 0.000000 16.568322 26.620951 10.762947 56.261823 30.658206 7.044609 -35.008937 21.822956 -5.438217 0.000000 0.000000 0.000000 
-0.000954 0.977147 -0.004801 0.209818 9.128423 1.783560 7.754075 -0.238332 7.392862 -4.030010 0.294375 -8.560965 5.338299 14.622509 16.569769 0.000000 0.000000 0.000000 -5.397861 0.150981 -2.121754 2.073752 -0.255537 0.313672 5.541404 4.343011 18.277802 0.000000 0.000000 0.000000 2.339185 -0.677223 9.436693 12.572835 -3.192681 -17.987381 0.200384 -13.862526 27.141167 -14.380663 8.691693 -25.327717 0.000000 0.000000 0.000000 -23.953692 -27.762070 17.865174 -79.237384 -52.243081 31.371619 12.162545 -88.170308 -0.102896 0.000000 0.000000 0.000000 16.486016 26.463028 10.670600 56.703062 30.486199 7.032837 -34.961623 22.413137 -5.596440 0.000000 0.000000 0.000000 
-0.000562 0.977101 -0.005818 0.279513 8.932594 1.680359 7.589720 -0.211619 7.405957 -3.956519 0.298444 -8.444832 5.466236 14.777433 16.542814 0.000000 0.000000 0.000000 -5.507287 0.147339 -2.074752 2.106703 -0.257132 0.419216 5.587284 4.391982 18.255997 0.000000 0.000000 0.000000 2.399816 -0.686045 9.507082 12.602421 -3.210146 -17.961773 0.147612 -13.711930 27.171695 -14.309012 8.645355 -25.401201 0.000000 0.000000 0.000000 -23.996754 -27.573058 17.758874 -78.880804 -51.691409 30.616228 -29.018292 -88.849440 40.346354 0.000000 0.000000 0.000000 16.327562 26.489134 10.668982 57.063604 30.586830 7.144380 -34.900428 22.881783 -5.714197 0.000000 0.000000 0.000000 
